<svg xmlns="http://www.w3.org/2000/svg" viewBox="0 21.239999771118164 273.3599853515625 40.230003356933594" data-asc="1.220703125" width="273.3599853515625" height="40.230003356933594"><defs/><g><g fill="#ffffff"><g transform="translate(0, 0)"><path d="M16.41 52.44L16.41 61.04L0 61.04L0 52.44L4.71 52.44L4.71 30.79L0 30.79L0 22.19L20.95 22.19L28.49 40.89L35.96 22.19L55.49 22.19L55.49 30.79L50.81 30.79L50.81 52.44L55.49 52.44L55.49 61.04L35.16 61.04L35.16 52.44L38.31 52.44L38.31 37.94L29.71 61.04L22.66 61.04L12.50 37.38L12.50 52.44L16.41 52.44ZM72.73 61.47Q68.19 61.47 64.84 59.79Q61.47 58.13 59.68 55.03Q57.89 51.93 57.89 47.78Q57.89 43.68 59.64 40.65Q61.38 37.65 64.55 36.01Q67.72 34.38 72.00 34.38Q75.93 34.38 78.93 35.91Q81.93 37.48 83.58 40.33Q85.23 43.19 85.23 47.00Q85.23 48.32 84.84 49.49L69.63 49.49Q69.63 51.78 71.36 53.16Q73.10 54.54 75.54 54.54Q77.39 54.54 79.61 53.89Q81.84 53.25 84.08 51.88L84.50 52.03L84.50 58.59Q81.98 60.03 79.33 60.75Q76.68 61.47 72.73 61.47M69.63 44.48L69.63 45.19L75.88 45.19L75.88 44.68Q75.88 42.94 75.09 41.69Q74.29 40.43 72.73 40.43Q71.44 40.43 70.53 41.71Q69.63 42.99 69.63 44.48ZM100.56 61.47Q97.02 61.47 94.43 59.59Q91.87 57.71 90.54 54.55Q89.21 51.39 89.21 47.58Q89.21 44.14 90.58 41.06Q91.94 38.04 94.45 36.21Q96.95 34.38 100.37 34.38Q102.86 34.38 104.64 35.18Q106.42 35.99 107.96 37.57L107.96 31.18L104.05 31.18L104.05 24.54L119.70 22.92L119.70 53.69L122.80 53.69L122.80 61.04L107.76 61.04L107.76 57.89Q106.57 59.50 104.71 60.46Q102.86 61.43 100.56 61.47M104.47 54.35Q105.62 54.35 106.54 53.80Q107.47 53.25 107.96 52.49L107.96 43.24Q107.40 42.58 106.46 42.05Q105.52 41.53 104.47 41.53Q102.56 41.53 101.37 43.08Q100.17 44.63 100.17 47.58Q100.17 50.59 101.27 52.47Q102.37 54.35 104.47 54.35ZM135.52 32.32Q132.47 32.32 130.49 30.88Q128.52 29.44 128.52 26.73Q128.52 24.02 130.49 22.63Q132.47 21.24 135.57 21.24Q138.67 21.24 140.61 22.61Q142.55 23.97 142.55 26.73Q142.55 29.44 140.56 30.88Q138.57 32.32 135.52 32.32M144.51 53.69L144.51 61.04L126.51 61.04L126.51 53.69L129.66 53.69L129.66 42.43L126.51 42.43L126.51 36.43L141.36 34.89L141.36 53.69L144.51 53.69ZM181.23 44.48L181.23 61.04L148.44 61.04L148.44 52.44L153.15 52.44L153.15 30.79L148.44 30.79L148.44 22.19L181.23 22.19L181.23 37.65L174.98 37.65L172.63 30.79L165.65 30.79L165.65 37.13L171.90 37.13L171.90 43.53L165.65 43.53L165.65 52.44L172.63 52.44L174.98 44.48L181.23 44.48ZM192.36 61.47Q189.87 61.47 187.84 60.50Q185.79 59.55 184.57 57.74Q183.35 55.93 183.35 53.54Q183.35 50.95 184.79 49.15Q186.23 47.39 188.56 46.51Q190.89 45.63 193.60 45.63Q196.80 45.63 199.76 46.58L199.76 45.48Q199.76 43.53 198.11 42.50Q196.46 41.48 193.65 41.48Q192.46 41.48 190.97 41.77Q189.48 42.07 188.06 42.58Q186.65 43.09 185.60 43.73L184.89 43.43L184.89 36.33Q187.84 35.28 190.92 34.83Q193.99 34.38 196.66 34.38Q211.50 34.38 211.50 42.72L211.50 53.69L213.79 53.69L213.79 61.04L201.29 61.04L200.20 57.03Q199.15 59.08 196.92 60.28Q194.70 61.47 192.36 61.47M196.95 55.22Q197.75 55.22 198.60 54.96Q199.44 54.69 199.76 54.39L199.76 50.29Q199.39 50.24 198.58 50Q197.75 49.78 197.14 49.78Q195.85 49.78 195.08 50.59Q194.31 51.39 194.31 52.73Q194.31 53.74 195.03 54.48Q195.75 55.22 196.95 55.22ZM231.30 61.47Q226.29 61.47 222.44 58.84L221.63 61.04L217.09 61.04L217.09 51.39L222.53 51.39Q222.85 53.25 224.27 54.71Q225.68 56.18 227.54 56.18Q228.25 56.18 228.77 55.79Q229.30 55.40 229.30 54.49Q229.30 53.59 228.27 52.86Q227.22 52.10 225.15 51.12Q222.63 49.88 221.04 48.85Q219.43 47.83 218.26 46.15Q217.09 44.48 217.09 42.14Q217.09 39.72 218.68 37.94Q220.26 36.18 222.85 35.28Q225.44 34.38 228.49 34.38Q232.47 34.38 235.89 36.47L236.50 34.89L240.55 34.89L240.55 42.68L235.84 42.68Q235.23 41.09 234.08 40.19Q232.93 39.28 231.40 39.28Q229.59 39.28 229.59 40.43Q229.61 41.21 230.54 41.77Q231.47 42.31 233.54 43.24Q234.84 43.77 235.91 44.31Q236.99 44.85 237.84 45.34Q239.55 46.34 240.82 48.16Q242.09 49.98 242.09 52.69Q242.09 55.57 240.60 57.52Q239.11 59.50 236.65 60.49Q234.18 61.47 231.30 61.47ZM260.86 61.47Q256.32 61.47 252.98 59.79Q249.61 58.13 247.81 55.03Q246.02 51.93 246.02 47.78Q246.02 43.68 247.78 40.65Q249.51 37.65 252.69 36.01Q255.86 34.38 260.13 34.38Q264.06 34.38 267.07 35.91Q270.07 37.48 271.72 40.33Q273.36 43.19 273.36 47.00Q273.36 48.32 272.97 49.49L257.76 49.49Q257.76 51.78 259.50 53.16Q261.23 54.54 263.67 54.54Q265.53 54.54 267.75 53.89Q269.97 53.25 272.22 51.88L272.63 52.03L272.63 58.59Q270.12 60.03 267.47 60.75Q264.82 61.47 260.86 61.47M257.76 44.48L257.76 45.19L264.01 45.19L264.01 44.68Q264.01 42.94 263.22 41.69Q262.43 40.43 260.86 40.43Q259.57 40.43 258.67 41.71Q257.76 42.99 257.76 44.48Z"/></g></g></g></svg>