<svg xmlns="http://www.w3.org/2000/svg" viewBox="0 13.960000038146973 175.67999267578125 35.5" data-asc="0.9794921875" width="175.67999267578125" height="35.5"><defs/><g><g fill="#000000"><g transform="translate(0, 0)"><path d="M21.56 48.97L21.56 24.98L21.34 26.46L13.21 48.97L11.55 48.97L3.34 26.46L3.15 24.98L3.15 48.97L0 48.97L0 13.96L1.64 13.96L12.26 42.68L12.35 43.97L12.45 42.68L23.05 13.96L24.71 13.96L24.71 48.97L21.56 48.97ZM47.90 42.11Q47.90 43.63 47.33 44.97Q46.75 46.31 45.75 47.31Q44.75 48.32 43.41 48.89Q42.07 49.46 40.55 49.46L38.55 49.46Q37.04 49.46 35.69 48.89Q34.35 48.32 33.35 47.31Q32.35 46.31 31.77 44.97Q31.20 43.63 31.20 42.11L31.20 30.83Q31.20 29.32 31.77 27.98Q32.35 26.64 33.35 25.63Q34.35 24.63 35.69 24.06Q37.04 23.49 38.55 23.49L40.55 23.49Q42.07 23.49 43.41 24.06Q44.75 24.63 45.75 25.63Q46.75 26.64 47.33 27.98Q47.90 29.32 47.90 30.83L47.90 36.72L34.20 36.72L34.20 42.29Q34.20 43.19 34.55 43.98Q34.89 44.78 35.47 45.36Q36.06 45.95 36.85 46.29Q37.65 46.63 38.55 46.63L40.55 46.63Q41.46 46.63 42.25 46.29Q43.04 45.95 43.63 45.36Q44.21 44.78 44.56 43.98Q44.90 43.19 44.90 42.29L44.90 40.63L47.90 41.11L47.90 42.11L47.90 42.11M44.90 30.66Q44.90 29.76 44.56 28.97Q44.21 28.17 43.63 27.59Q43.04 27.00 42.25 26.66Q41.46 26.32 40.55 26.32L38.55 26.32Q37.65 26.32 36.85 26.66Q36.06 27.00 35.47 27.59Q34.89 28.17 34.55 28.97Q34.20 29.76 34.20 30.66L34.20 34.38L44.90 34.38L44.90 30.66ZM69.60 48.97L67.94 46.44Q66.92 47.83 65.38 48.65Q63.84 49.46 62.01 49.46L61.25 49.46Q59.74 49.46 58.40 48.89Q57.06 48.32 56.05 47.31Q55.05 46.31 54.48 44.97Q53.91 43.63 53.91 42.11L53.91 30.83Q53.91 29.32 54.48 27.98Q55.05 26.64 56.05 25.63Q57.06 24.63 58.40 24.06Q59.74 23.49 61.25 23.49L62.01 23.49Q63.70 23.49 65.14 24.17Q66.58 24.85 67.60 26.07L67.60 13.96L70.61 13.96L70.61 48.97L69.60 48.97M67.60 30.66Q67.60 29.76 67.26 28.97Q66.92 28.17 66.33 27.59Q65.75 27.00 64.95 26.66Q64.16 26.32 63.26 26.32L61.25 26.32Q60.35 26.32 59.56 26.66Q58.76 27.00 58.18 27.59Q57.59 28.17 57.25 28.97Q56.91 29.76 56.91 30.66L56.91 42.29Q56.91 43.19 57.25 43.98Q57.59 44.78 58.18 45.36Q58.76 45.95 59.56 46.29Q60.35 46.63 61.25 46.63L63.26 46.63Q64.16 46.63 64.95 46.29Q65.75 45.95 66.33 45.36Q66.92 44.78 67.26 43.98Q67.60 43.19 67.60 42.29L67.60 30.66ZM77.37 17.97L77.37 13.96L80.86 13.96L80.86 17.97L77.37 17.97M77.61 48.97L77.61 23.97L80.62 23.97L80.62 48.97L77.61 48.97ZM88.62 48.97L88.62 13.96L108.33 13.96L108.33 16.97L91.77 16.97L91.77 29.98L105.18 29.98L105.18 32.98L91.77 32.98L91.77 45.97L108.33 45.97L108.33 48.97L88.62 48.97ZM129.03 48.97L127.37 46.48Q126.34 47.83 124.80 48.65Q123.27 49.46 121.44 49.46L120.68 49.46Q119.17 49.46 117.82 48.89Q116.48 48.32 115.48 47.31Q114.48 46.31 113.90 44.97Q113.33 43.63 113.33 42.11L113.33 41.87Q113.33 40.36 113.90 39.01Q114.48 37.67 115.48 36.67Q116.48 35.67 117.82 35.10Q119.17 34.52 120.68 34.52L127.03 34.52L127.03 30.66Q127.03 29.76 126.68 28.97Q126.34 28.17 125.76 27.59Q125.17 27.00 124.38 26.66Q123.58 26.32 122.68 26.32L120.92 26.32Q120.02 26.32 119.23 26.66Q118.43 27.00 117.85 27.59Q117.26 28.17 116.92 28.97Q116.58 29.76 116.58 30.66L116.58 31.57L113.57 31.08L113.57 30.83Q113.57 29.32 114.15 27.98Q114.72 26.64 115.72 25.63Q116.72 24.63 118.07 24.06Q119.41 23.49 120.92 23.49L122.68 23.49Q124.19 23.49 125.54 24.06Q126.88 24.63 127.88 25.63Q128.88 26.64 129.46 27.98Q130.03 29.32 130.03 30.83L130.03 48.97L129.03 48.97M127.03 36.87L120.68 36.87Q119.78 36.87 118.98 37.21Q118.19 37.55 117.60 38.15Q117.02 38.75 116.67 39.54Q116.33 40.33 116.33 41.24L116.33 42.29Q116.33 43.19 116.67 43.98Q117.02 44.78 117.60 45.36Q118.19 45.95 118.98 46.29Q119.78 46.63 120.68 46.63L122.68 46.63Q123.58 46.63 124.38 46.29Q125.17 45.95 125.76 45.36Q126.34 44.78 126.68 43.98Q127.03 43.19 127.03 42.29L127.03 36.87ZM153.22 42.63Q153.22 44.14 152.61 45.40Q152.00 46.66 150.95 47.56Q149.90 48.46 148.52 48.96Q147.14 49.46 145.63 49.46L143.63 49.46Q142.11 49.46 140.73 48.89Q139.36 48.32 138.32 47.31Q137.28 46.31 136.66 44.97Q136.04 43.63 136.04 42.11L136.04 41.11L139.04 40.63L139.04 42.29Q139.04 43.19 139.42 43.98Q139.79 44.78 140.43 45.36Q141.06 45.95 141.89 46.29Q142.72 46.63 143.63 46.63L145.63 46.63Q146.53 46.63 147.36 46.36Q148.19 46.09 148.84 45.59Q149.49 45.09 149.87 44.38Q150.24 43.68 150.24 42.77Q150.24 41.43 149.66 40.58Q149.07 39.72 148.11 39.15Q147.14 38.57 145.91 38.20Q144.68 37.82 143.38 37.44Q142.09 37.06 140.86 36.57Q139.62 36.08 138.66 35.29Q137.70 34.50 137.11 33.30Q136.52 32.10 136.52 30.32Q136.52 28.81 137.11 27.55Q137.70 26.29 138.70 25.39Q139.70 24.49 141.03 23.99Q142.36 23.49 143.87 23.49L145.63 23.49Q147.14 23.49 148.49 24.06Q149.83 24.63 150.83 25.63Q151.83 26.64 152.40 27.98Q152.98 29.32 152.98 30.83L152.98 30.93L149.98 31.42L149.98 30.66Q149.98 29.76 149.63 28.97Q149.29 28.17 148.71 27.59Q148.12 27.00 147.33 26.66Q146.53 26.32 145.63 26.32L143.87 26.32Q142.97 26.32 142.18 26.59Q141.38 26.86 140.80 27.36Q140.21 27.86 139.87 28.56Q139.53 29.27 139.53 30.18Q139.53 31.47 140.11 32.29Q140.70 33.11 141.66 33.67Q142.63 34.23 143.86 34.61Q145.09 34.99 146.37 35.39Q147.66 35.79 148.89 36.30Q150.12 36.82 151.09 37.62Q152.05 38.43 152.64 39.64Q153.22 40.84 153.22 42.63ZM175.68 42.11Q175.68 43.63 175.11 44.97Q174.54 46.31 173.54 47.31Q172.53 48.32 171.19 48.89Q169.85 49.46 168.33 49.46L166.33 49.46Q164.82 49.46 163.48 48.89Q162.13 48.32 161.13 47.31Q160.13 46.31 159.56 44.97Q158.98 43.63 158.98 42.11L158.98 30.83Q158.98 29.32 159.56 27.98Q160.13 26.64 161.13 25.63Q162.13 24.63 163.48 24.06Q164.82 23.49 166.33 23.49L168.33 23.49Q169.85 23.49 171.19 24.06Q172.53 24.63 173.54 25.63Q174.54 26.64 175.11 27.98Q175.68 29.32 175.68 30.83L175.68 36.72L161.99 36.72L161.99 42.29Q161.99 43.19 162.33 43.98Q162.67 44.78 163.26 45.36Q163.84 45.95 164.64 46.29Q165.43 46.63 166.33 46.63L168.33 46.63Q169.24 46.63 170.03 46.29Q170.83 45.95 171.41 45.36Q172.00 44.78 172.34 43.98Q172.68 43.19 172.68 42.29L172.68 40.63L175.68 41.11L175.68 42.11L175.68 42.11M172.68 30.66Q172.68 29.76 172.34 28.97Q172.00 28.17 171.41 27.59Q170.83 27.00 170.03 26.66Q169.24 26.32 168.33 26.32L166.33 26.32Q165.43 26.32 164.64 26.66Q163.84 27.00 163.26 27.59Q162.67 28.17 162.33 28.97Q161.99 29.76 161.99 30.66L161.99 34.38L172.68 34.38L172.68 30.66Z"/></g></g></g></svg>